<svg width="232" height="164" viewBox="0 0 232 164" fill="none" xmlns="http://www.w3.org/2000/svg">
<g id="helicopter">
<path id="Vector" d="M130.1 109.05C128.632 96.1337 126.293 83.3312 123.1 70.73C118.21 51.18 101.71 28.73 78.5901 35.89C74.3069 37.1476 70.2157 38.9846 66.43 41.35C61.9642 44.1525 57.96 47.6304 54.56 51.66C43.06 65.85 42.98 86.66 43.56 103.88C43.86 112.94 45.49 121.99 47.06 130.88C47.4 132.78 47.63 134.69 47.92 136.59C47.9345 137.243 48.0149 137.893 48.16 138.53C50.09 139.44 55.11 137.64 57.39 137.33C64.82 136.33 72.28 135.92 79.75 135.33C99.93 133.75 119.81 130.33 139.93 128.33C151.24 127.17 162.65 126.94 173.93 125.78C183.86 124.78 200.93 128.44 204.35 115.5C206.45 107.69 204.35 84.89 203.66 82.02C203.41 81.02 202.01 72.02 202.47 72.02C204.54 72.07 209.82 78.82 211.14 80.14C215.75 84.73 218.3 89.25 222.45 94.26C224.5 96.74 230.59 106.05 230.13 106.19C224.39 107.99 218.13 106.5 212.23 106.19C204.644 105.866 197.045 106.083 189.49 106.84C156.49 109.65 123.8 114.16 90.82 116.43C82.08 117.03 73.44 118.07 64.69 118.65C61.2813 118.905 57.8895 119.349 54.5301 119.98C53.5646 120.198 52.5858 120.352 51.6 120.44C50.4 117.21 49.23 109.89 48.93 106.3C47.99 94.81 48.27 85.52 51.44 74.44C53.57 67 61.68 44.44 86.17 40.93C97.75 39.24 103.04 56.04 103.69 59.98C105.77 72.48 107.01 85.13 108.62 97.7C109.12 101.7 109.51 108.85 109.51 108.85C109.51 108.85 75.07 112.22 63.92 112.29C61.41 112.29 56.98 114.06 55.21 112.12C52.73 109.4 52.8001 105.97 52.7801 102.45C52.7801 94.35 53.48 83 58.39 76.37C60.39 73.63 63.49 70.63 67.04 70.26C77.04 69.26 77.49 82.26 79.13 88.9C79.55 90.6 80.13 93.42 81.42 94.72C85.61 98.87 94.27 94.95 99.33 96.11C100.33 96.34 101.33 98.22 101.76 99.11C103.531 102.493 104.554 106.217 104.76 110.03" stroke="#ECECEC" stroke-width="2" stroke-linejoin="round"/>
<path id="Vector_2" d="M61.58 138.82C62.12 143.59 62.85 151.21 63.48 155.98C63.53 156.41 63.94 162.05 63.7 162.24C63.46 162.43 53.17 156.38 51.44 154.53C51.36 154.44 54.74 154.26 57.05 154.01C59.19 153.78 61.37 153.73 63.52 153.67C69.73 153.49 75.82 152.38 82.02 152.02C94.1 151.33 106.11 149.85 118.19 149.16C122.19 148.93 136.19 147.51 136.11 148.16C135.94 150.66 131.74 153.93 130.11 155.56C130.01 155.67 127.96 157.67 127.95 157.66C126.82 156.61 126.95 152.85 126.86 151.46C126.42 145.97 127.02 140.18 126.13 134.73" stroke="#ECECEC" stroke-width="2" stroke-linejoin="round"/>
<path id="Vector_3" d="M81.95 30.39C81.95 24.39 81.2 17.57 80.75 11.61C80.75 11.31 50.35 14.99 47.09 15.49C38.73 16.78 1 23.41 1 23.41C1 23.41 29.23 21.93 35.59 21.56C52.19 20.56 68.27 19.69 83.8 18.23C97.14 16.98 106.46 16.34 122.4 15.35C131.67 14.78 161 11.66 161.02 11.57C161.04 11.48 127.75 10.15 118.88 9.67C106.99 9.03 96.15 8.67 85.28 8.43C83 8.38 75.19 9.06 73.08 8.78C71.4 8.56 78.4 1 78.52 1C78.64 1 82.93 4.56 84.03 6.37" stroke="#ECECEC" stroke-width="2" stroke-linejoin="round"/>
</g>
</svg>
